<?xml version="1.0" encoding="UTF-8"?>
<svg xmlns="http://www.w3.org/2000/svg" xmlns:xlink="http://www.w3.org/1999/xlink" viewBox="0 0 36 36" width="30px" height="30px">
<g id="surface57758707">
<path style=" stroke:none;fill-rule:nonzero;fill:rgb(100%,100%,100%);fill-opacity:1;" d="M 4 2 C 3.449219 2 3 2.449219 3 3 L 3 24 C 3 26.210938 4.789062 28 7 28 L 24 28 C 26.210938 28 28 26.210938 28 24 L 28 10 C 28 9.449219 27.550781 9 27 9 L 25 9 L 25 24 C 25 24.554688 24.550781 25 24 25 C 23.449219 25 23 24.554688 23 24 L 23 3 C 23 2.449219 22.550781 2 22 2 Z M 6 6 L 20 6 L 20 9 L 6 9 Z M 6 13 L 12 13 L 12 15 L 6 15 Z M 14 13 L 20 13 L 20 15 L 14 15 Z M 6 17 L 12 17 L 12 19 L 6 19 Z M 14 17 L 20 17 L 20 19 L 14 19 Z M 6 21 L 12 21 L 12 23 L 6 23 Z M 14 21 L 20 21 L 20 23 L 14 23 Z M 14 21 "/>
</g>
</svg>
